{"title":"CheatingWhoreWives - Tanya Tate[RDY]","uid":7328764,"size":1224927711,"categoryP":"porn","categoryS":"movies","magnet":"?xt=urn:btih:ab96e0b699aac83b506b91111ce649431bb495bf&amp;dn=+CheatingWhoreWives+-+Tanya+Tate%5BRDY%5D&amp;tr=udp%3A%2F%2Ftracker.openbittorrent.com%3A80&amp;tr=udp%3A%2F%2Fopen.demonii.com%3A1337&amp;tr=udp%3A%2F%2Ftracker.coppersurfer.tk%3A6969&amp;tr=udp%3A%2F%2Fexodus.desync.com%3A6969","seeders":0,"leechers":0,"uploader":"soulless123","files":4,"time":1338842343,"description":"Screens\n &lt;a href=&quot;\nhttp://bayimg.com/iaPaPAadA&quot; rel=&quot;nofollow&quot; target=&quot;_NEW&quot;&gt;\nhttp://bayimg.com/iaPaPAadA&lt;/a&gt;\n &lt;a href=&quot;\nhttp://bayimg.com/jaPAAaadA&quot; rel=&quot;nofollow&quot; target=&quot;_NEW&quot;&gt;\nhttp://bayimg.com/jaPAAaadA&lt;/a&gt;\n\nSeeding Time 24/7\n\nDon't Forget To Say Thanks If You Like My Post\n\n\n\n-=Media Info=-\n\nFormat : Windows Media\nFile size : 1.14 GiB\nDuration : 35mn 21s\nOverall bit rate mode : Constant\nOverall bit rate : 4 619 Kbps\nMaximum Overall bit rate : 4 634 Kbps\nEncoded date : UTC 2010-07-23 19:23:28.790\n\nVideo\nID : 2\nFormat : VC-1\nFormat profile : MP@HL\nCodec ID : WMV3\nCodec ID/Info : Windows Media Video 9\nCodec ID/Hint : WMV3\nDescription of the codec : Windows Media Video 9 - Professional\nDuration : 35mn 21s\nBit rate mode : Constant\nBit rate : 4 500 Kbps\nWidth : 1 280 pixels\nHeight : 720 pixels\nDisplay aspect ratio : 16:9\nFrame rate : 29.970 fps\nBit depth : 8 bits\nScan type : Progressive\nCompression mode : Lossy\nBits/(Pixel*Frame) : 0.163\nStream size : 1.11 GiB (97%)\nLanguage : Hungarian\n\nAudio\nID : 1\nFormat : WMA\nFormat version : Version 2\nCodec ID : 161\nCodec ID/Info : Windows Media Audio\nDescription of the codec : Windows Media Audio 9.2 - 96 kbps, 44 kHz, stereo 1-pass CBR\nDuration : 35mn 21s\nBit rate mode : Constant\nBit rate : 96.0 Kbps\nChannel(s) : 2 channels\nSampling rate : 44.1 KHz\nBit depth : 16 bits\nStream size : 24.3 MiB (2%)\nLanguage : English (US)","torrent":{"xt":"urn:btih:ab96e0b699aac83b506b91111ce649431bb495bf","amp;dn":"+CheatingWhoreWives+-+Tanya+Tate%5BRDY%5D","amp;tr":["udp%3A%2F%2Ftracker.openbittorrent.com%3A80","udp%3A%2F%2Fopen.demonii.com%3A1337","udp%3A%2F%2Ftracker.coppersurfer.tk%3A6969","udp%3A%2F%2Fexodus.desync.com%3A6969"],"infoHash":"ab96e0b699aac83b506b91111ce649431bb495bf","infoHashBuffer":{"type":"Buffer","data":[171,150,224,182,153,170,200,59,80,107,145,17,28,230,73,67,27,180,149,191]},"announce":[],"urlList":[]}}